<?xml version="1.0" encoding="UTF-8"?>
<svg width="97px" height="35px" viewBox="0 0 97 35" version="1.1" xmlns="http://www.w3.org/2000/svg" xmlns:xlink="http://www.w3.org/1999/xlink">
    <!-- Generator: Sketch 47.1 (45422) - http://www.bohemiancoding.com/sketch -->
    <title>Page 1</title>
    <desc>Created with Sketch.</desc>
    <defs>
        <polygon id="path-1" points="0.451506942 0.436172414 4.8091157 0.436172414 4.8091157 34.1013448 0.451506942 34.1013448"></polygon>
    </defs>
    <g id="Produktion" stroke="none" stroke-width="1" fill="none" fill-rule="evenodd">
        <g id="Navigation_Scrolling" transform="translate(-149.000000, -11.000000)">
            <g id="Menu">
                <g transform="translate(149.000000, -4.000000)" id="Page-1">
                    <g transform="translate(0.000000, 15.000000)">
                        <polygon id="Fill-4" fill="#0067B0" points="55.2966897 11.1363636 50.5041322 11.1363636 50.5214921 34.2045455 55.3140496 34.2045455"></polygon>
                        <polygon id="Fill-6" fill="#0067B0" points="62.9720056 34.2045455 66.8252906 34.2045455 72.9504132 11.1363636 70.0347689 11.1363636 66.155206 27.5612595 66.0154558 27.5612595 63.1117559 11.1363636 56.9173554 11.1363636"></polygon>
                        <path d="M87.2910927,3.8141297 C87.2910927,4.39231221 86.8369737,4.57979817 86.3381675,4.57979817 L86.0012015,4.57979817 L86.0012015,3.18393496 C86.111108,3.13797066 86.2644939,3.11135975 86.4106333,3.11135975 C86.8091952,3.11135975 87.2910927,3.26497728 87.2910927,3.8141297 L87.2910927,3.8141297 Z M87.8889356,6.61432324 L86.6002521,4.84953604 C87.2451977,4.81324843 87.7258875,4.46246825 87.7258875,3.8238064 C87.7258875,3.11135975 87.136499,2.76178915 86.4649826,2.76178915 C86.1292244,2.76178915 85.8115827,2.82589725 85.5760689,2.940808 L85.5760689,6.61432324 L86.0012015,6.61432324 L86.0012015,4.87614695 L86.1376788,4.87614695 L87.381675,6.61432324 L87.8889356,6.61432324 Z M89.3962242,4.77696083 C89.3962242,6.31676487 88.1341115,7.56868725 86.5736813,7.56868725 C85.0229133,7.56868725 83.7608006,6.31676487 83.7608006,4.77696083 C83.7608006,3.23715678 85.0229133,1.97676729 86.5736813,1.97676729 C88.1341115,1.97676729 89.3962242,3.23715678 89.3962242,4.77696083 L89.3962242,4.77696083 Z M89.785124,4.77696083 C89.785124,3.01217363 88.3430546,1.59090909 86.5736813,1.59090909 C84.8043081,1.59090909 83.3719008,3.01217363 83.3719008,4.77696083 C83.3719008,6.53328092 84.8043081,7.95454545 86.5736813,7.95454545 C88.3430546,7.95454545 89.785124,6.53328092 89.785124,4.77696083 L89.785124,4.77696083 Z" id="Fill-8" fill="#0067B0"></path>
                        <path d="M23.4284952,14.3507156 L23.4320553,30.0148439 C23.2682893,30.4241058 22.410298,31.436166 20.5827644,31.4891728 C18.2710532,31.5582049 17.0701026,28.7722657 17.0404348,23.1116316 C17.0036468,15.6758858 19.0685224,14.5282268 20.535296,14.0930779 C22.2346649,13.5888968 23.3299983,14.2225131 23.4284952,14.3507156 M24.4015975,11.5820344 C23.2599824,11.1998923 21.4265153,10.9521163 19.8019092,11.3096041 C15.8703387,12.174971 12.1310152,14.9411868 12.0277715,22.9341204 C11.9126606,31.635866 15.148819,35.0763777 19.2619561,34.9987166 C22.7781781,34.9309172 23.7287329,32.5345164 23.7287329,32.5345164 L23.7619607,32.5345164 C23.7619607,32.5345164 23.9364071,33.9952854 24.5297622,34.5352152 L28.0471708,34.5352152 L28.0578512,13.718332 C28.0578512,13.718332 27.2378346,12.5299934 24.4015975,11.5820344" id="Fill-10" fill="#0067B0"></path>
                        <path d="M41.8746196,29.316067 C41.7108045,29.717392 40.8513686,30.7098252 39.024474,30.7618041 C36.7120693,30.8282886 35.5107584,28.0975862 35.4822688,22.5467294 C35.4442827,15.2551858 37.5097777,14.1297834 38.9769913,13.7030734 C40.6768699,13.20867 41.7713448,13.8299984 41.8710584,13.9557147 L41.8746196,29.316067 Z M46.4958678,0 C46.4958678,0 41.8912385,0.348137361 41.8912385,2.31849812 L41.8912385,10.9953383 C40.8121955,10.7825877 39.4684367,10.7088503 38.2433845,10.9735797 C34.3106346,11.8221646 30.5713765,14.5347348 30.4657277,22.3726607 C30.3517693,30.9056525 33.5900855,34.279442 37.7032694,34.2032869 C41.2217333,34.1368024 42.1713861,31.7868752 42.1713861,31.7868752 L42.205811,31.7868752 C42.205811,31.7868752 42.3791227,33.2193154 42.9714686,33.7487743 L46.4899324,33.7487743 L46.4958678,0 Z" id="Fill-12" fill="#0067B0"></path>
                        <path d="M14.4297521,34.2045455 C12.9917732,32.8642727 12.3385896,30.5859316 12.3385896,30.5859316 L4.72583215,30.5859316 L4.73192528,0 C4.73192528,0 0.00365587841,0.354381359 0.00365587841,2.35191504 L0,34.2045455 L14.4297521,34.2045455 Z" id="Fill-14" fill="#0067B0"></path>
                        <g id="Group-18" transform="translate(92.190083, 0.000000)">
                            <mask id="mask-2" fill="white">
                                <use xlink:href="#path-1"></use>
                            </mask>
                            <g id="Clip-17"></g>
                            <path d="M4.8094524,0.436172414 C4.8094524,0.436172414 0.454873884,0.782551724 0.454873884,2.7522069 L0.451506942,34.1013448 L4.8094524,34.1013448 L4.8094524,0.436172414 Z" id="Fill-16" fill="#0067B0" mask="url(#mask-2)"></path>
                        </g>
                        <path d="M84.354115,14.3507101 L84.3576752,30.0148118 C84.1939092,30.424073 83.3359178,31.4361315 81.5083843,31.4891382 C79.196673,31.5581702 77.9957224,28.7722357 77.9672414,23.112844 C77.9292667,15.6758781 79.9953289,14.5294537 81.4609159,14.0930728 C83.1614714,13.5901254 84.2556181,14.2237406 84.354115,14.3507101 M85.3272173,11.5820336 C84.1856022,11.1998922 82.3521351,10.9521166 80.727529,11.3096038 C76.7959585,12.1749693 73.0566351,14.942413 72.9533913,22.9341004 C72.8382804,31.6370639 76.0744388,35.0775698 80.1875759,34.998676 C83.7049846,34.9308767 84.6543527,32.53448 84.6543527,32.53448 L84.6887673,32.53448 C84.6887673,32.53448 84.862027,33.9964792 85.455382,34.5339427 L88.9727907,34.5339427 L88.9834711,13.7183277 C88.9834711,13.7183277 88.1634544,12.5312237 85.3272173,11.5820336" id="Fill-19" fill="#0067B0"></path>
                        <path d="M53.3099174,7.15909091 C54.8603489,7.15909091 56.1157025,5.91425412 56.1157025,4.37611946 C56.1157025,2.83910425 54.8603489,1.59090909 53.3099174,1.59090909 C51.7607577,1.59090909 50.5041322,2.83910425 50.5041322,4.37611946 C50.5041322,5.91425412 51.7607577,7.15909091 53.3099174,7.15909091" id="Fill-21" fill="#0067B0"></path>
                    </g>
                </g>
            </g>
        </g>
    </g>
</svg>